<svg width="20" height="20" viewBox="0 0 20 20" fill="none" xmlns="http://www.w3.org/2000/svg">
<g clip-path="url(#clip0_231_844)">
<path d="M10.3156 2.4209C5.95537 2.4209 2.4209 5.95537 2.4209 10.3156C2.4209 14.2559 5.30801 17.5219 9.08248 18.1148V12.5972H7.07722V10.3156H9.08248V8.57642C9.08248 6.598 10.2604 5.50537 12.0643 5.50537C12.928 5.50537 13.8312 5.65932 13.8312 5.65932V7.60142H12.8364C11.8551 7.60142 11.5496 8.21011 11.5496 8.83458V10.3156H13.7388L13.3891 12.5972H11.5496V18.1148C15.3233 17.5227 18.2104 14.2551 18.2104 10.3156C18.2104 5.95537 14.6759 2.4209 10.3156 2.4209Z" fill="black"/>
</g>
<defs>
<clipPath id="clip0_231_844">
<rect width="18.9474" height="18.9474" fill="white" transform="translate(0.841797 0.842041)"/>
</clipPath>
</defs>
</svg>
