<svg width="20" height="20" viewBox="0 0 20 20" fill="none" xmlns="http://www.w3.org/2000/svg">
<g clip-path="url(#clip0_231_834)">
<path d="M10.3156 2.4209C12.4606 2.4209 12.7283 2.42879 13.5698 2.46827C14.4106 2.50774 14.983 2.63958 15.4867 2.83537C16.0077 3.0359 16.4467 3.30748 16.8856 3.74564C17.2871 4.14029 17.5977 4.61768 17.7959 5.14458C17.9909 5.64748 18.1235 6.22064 18.163 7.06142C18.2001 7.903 18.2104 8.17064 18.2104 10.3156C18.2104 12.4606 18.2025 12.7283 18.163 13.5698C18.1235 14.4106 17.9909 14.983 17.7959 15.4867C17.5983 16.0139 17.2876 16.4914 16.8856 16.8856C16.4909 17.2869 16.0135 17.5975 15.4867 17.7959C14.9838 17.9909 14.4106 18.1235 13.5698 18.163C12.7283 18.2001 12.4606 18.2104 10.3156 18.2104C8.17064 18.2104 7.903 18.2025 7.06142 18.163C6.22064 18.1235 5.64827 17.9909 5.14458 17.7959C4.61747 17.5981 4.14 17.2874 3.74564 16.8856C3.34411 16.491 3.03348 16.0136 2.83537 15.4867C2.63958 14.9838 2.50774 14.4106 2.46827 13.5698C2.43116 12.7283 2.4209 12.4606 2.4209 10.3156C2.4209 8.17064 2.42879 7.903 2.46827 7.06142C2.50774 6.21985 2.63958 5.64827 2.83537 5.14458C3.03293 4.61736 3.34364 4.13984 3.74564 3.74564C4.14011 3.34398 4.61755 3.03332 5.14458 2.83537C5.64827 2.63958 6.21985 2.50774 7.06142 2.46827C7.903 2.43116 8.17064 2.4209 10.3156 2.4209ZM10.3156 6.36827C9.26873 6.36827 8.2647 6.78415 7.52442 7.52442C6.78415 8.2647 6.36827 9.26873 6.36827 10.3156C6.36827 11.3625 6.78415 12.3666 7.52442 13.1068C8.2647 13.8471 9.26873 14.263 10.3156 14.263C11.3625 14.263 12.3666 13.8471 13.1068 13.1068C13.8471 12.3666 14.263 11.3625 14.263 10.3156C14.263 9.26873 13.8471 8.2647 13.1068 7.52442C12.3666 6.78415 11.3625 6.36827 10.3156 6.36827ZM15.4472 6.1709C15.4472 5.90917 15.3432 5.65816 15.1582 5.4731C14.9731 5.28803 14.7221 5.18406 14.4604 5.18406C14.1986 5.18406 13.9476 5.28803 13.7626 5.4731C13.5775 5.65816 13.4735 5.90917 13.4735 6.1709C13.4735 6.43263 13.5775 6.68363 13.7626 6.8687C13.9476 7.05377 14.1986 7.15774 14.4604 7.15774C14.7221 7.15774 14.9731 7.05377 15.1582 6.8687C15.3432 6.68363 15.4472 6.43263 15.4472 6.1709ZM10.3156 7.94721C10.9438 7.94721 11.5462 8.19674 11.9904 8.64091C12.4345 9.08507 12.6841 9.68749 12.6841 10.3156C12.6841 10.9438 12.4345 11.5462 11.9904 11.9904C11.5462 12.4345 10.9438 12.6841 10.3156 12.6841C9.68749 12.6841 9.08507 12.4345 8.64091 11.9904C8.19674 11.5462 7.94721 10.9438 7.94721 10.3156C7.94721 9.68749 8.19674 9.08507 8.64091 8.64091C9.08507 8.19674 9.68749 7.94721 10.3156 7.94721Z" fill="black"/>
</g>
<defs>
<clipPath id="clip0_231_834">
<rect width="18.9474" height="18.9474" fill="white" transform="translate(0.841797 0.842041)"/>
</clipPath>
</defs>
</svg>
