<svg width="26" height="26" viewBox="0 0 26 26" fill="none" xmlns="http://www.w3.org/2000/svg">
<path d="M13.0003 22.75C11.632 21.5828 10.3637 20.3033 9.20866 18.9247C7.47533 16.8545 5.41699 13.7713 5.41699 10.8333C5.41546 7.76484 7.26326 4.99783 10.0982 3.82351C12.933 2.64918 16.1962 3.299 18.365 5.46974C19.7912 6.88957 20.5901 8.82091 20.5837 10.8333C20.5837 13.7713 18.5253 16.8545 16.792 18.9247C15.637 20.3033 14.3687 21.5828 13.0003 22.75ZM13.0003 7.58333C11.8392 7.58333 10.7663 8.20277 10.1857 9.20833C9.60519 10.2139 9.60519 11.4528 10.1857 12.4583C10.7663 13.4639 11.8392 14.0833 13.0003 14.0833C14.7953 14.0833 16.2503 12.6283 16.2503 10.8333C16.2503 9.0384 14.7953 7.58333 13.0003 7.58333Z" fill="black"/>
</svg>
