<svg width="15" height="13" viewBox="0 0 15 13" fill="none" xmlns="http://www.w3.org/2000/svg">
<path fill-rule="evenodd" clip-rule="evenodd" d="M11.1249 0.366211C12.0633 0.366211 12.966 0.737094 13.6301 1.40259C14.2949 2.06668 14.6665 2.9624 14.6665 3.9001V9.42836C14.6665 11.3808 13.078 12.9623 11.1249 12.9623H4.21179C2.2587 12.9623 0.670898 11.3808 0.670898 9.42836V3.9001C0.670898 1.94771 2.2517 0.366211 4.21179 0.366211H11.1249ZM12.2382 4.94283L12.2942 4.88685C12.4614 4.68391 12.4614 4.39001 12.2865 4.18707C12.1892 4.0828 12.0556 4.01912 11.9163 4.00513C11.7694 3.99743 11.6294 4.04711 11.5237 4.14508L8.36842 6.66429C7.96255 7.00089 7.38103 7.00089 6.96886 6.66429L3.81985 4.14508C3.60222 3.98413 3.30131 4.00513 3.12007 4.19407C2.93113 4.38301 2.91014 4.68391 3.07039 4.89385L3.16206 4.98482L6.34606 7.46904C6.73794 7.77694 7.21309 7.94489 7.71063 7.94489C8.20677 7.94489 8.69032 7.77694 9.0815 7.46904L12.2382 4.94283Z" fill="white"/>
</svg>
