<svg width="22" height="23" viewBox="0 0 22 23" fill="none" xmlns="http://www.w3.org/2000/svg">
<path fill-rule="evenodd" clip-rule="evenodd" d="M2.43655 7.04165C3.08208 4.57221 5.32824 2.74998 8 2.74998H16C19.1756 2.74998 21.75 5.32434 21.75 8.49998V16.5C21.75 19.6756 19.1756 22.25 16 22.25H8C4.82436 22.25 2.25 19.6756 2.25 16.5V8.54165H20.1667V7.04165H2.43655ZM5.95833 12.2083C5.54412 12.2083 5.20833 11.8725 5.20833 11.4583C5.20833 11.0441 5.54412 10.7083 5.95833 10.7083H6.875C7.28921 10.7083 7.625 11.0441 7.625 11.4583C7.625 11.8725 7.28921 12.2083 6.875 12.2083H5.95833ZM9.79167 11.4583C9.79167 11.8725 10.1275 12.2083 10.5417 12.2083H11.4583C11.8725 12.2083 12.2083 11.8725 12.2083 11.4583C12.2083 11.0441 11.8725 10.7083 11.4583 10.7083H10.5417C10.1275 10.7083 9.79167 11.0441 9.79167 11.4583ZM15.125 12.2083C14.7108 12.2083 14.375 11.8725 14.375 11.4583C14.375 11.0441 14.7108 10.7083 15.125 10.7083H16.0417C16.4559 10.7083 16.7917 11.0441 16.7917 11.4583C16.7917 11.8725 16.4559 12.2083 16.0417 12.2083H15.125ZM5.20833 15.125C5.20833 15.5392 5.54412 15.875 5.95833 15.875H6.875C7.28921 15.875 7.625 15.5392 7.625 15.125C7.625 14.7108 7.28921 14.375 6.875 14.375H5.95833C5.54412 14.375 5.20833 14.7108 5.20833 15.125ZM10.5417 15.875C10.1275 15.875 9.79167 15.5392 9.79167 15.125C9.79167 14.7108 10.1275 14.375 10.5417 14.375H11.4583C11.8725 14.375 12.2083 14.7108 12.2083 15.125C12.2083 15.5392 11.8725 15.875 11.4583 15.875H10.5417ZM14.375 15.125C14.375 15.5392 14.7108 15.875 15.125 15.875H16.0417C16.4559 15.875 16.7917 15.5392 16.7917 15.125C16.7917 14.7108 16.4559 14.375 16.0417 14.375H15.125C14.7108 14.375 14.375 14.7108 14.375 15.125ZM15.125 1.08331C14.7108 1.08331 14.375 1.4191 14.375 1.83331V4.58331C14.375 4.99753 14.7108 5.33331 15.125 5.33331C15.5392 5.33331 15.875 4.99753 15.875 4.58331V1.83331C15.875 1.4191 15.5392 1.08331 15.125 1.08331ZM6.875 1.08331C6.46079 1.08331 6.125 1.4191 6.125 1.83331L6.125 4.58331C6.125 4.99753 6.46079 5.33331 6.875 5.33331C7.28921 5.33331 7.625 4.99753 7.625 4.58331L7.625 1.83331C7.625 1.4191 7.28921 1.08331 6.875 1.08331Z" fill="black"/>
</svg>
