<svg width="16" height="16" viewBox="0 0 16 16" fill="none" xmlns="http://www.w3.org/2000/svg">
<path d="M9.47442 3.54403C9.11895 3.47836 8.79248 3.70521 8.72481 4.0522C8.65713 4.39919 8.88469 4.73797 9.2305 4.80588C10.2716 5.00885 11.0755 5.81476 11.2793 6.85947V6.86021C11.3373 7.16094 11.6021 7.37958 11.907 7.37958C11.9479 7.37958 11.9888 7.37585 12.0304 7.36839C12.3762 7.29899 12.6038 6.96095 12.5361 6.61321C12.2319 5.05288 11.0309 3.84774 9.47442 3.54403Z" fill="white"/>
<path d="M9.42783 0.94391C9.26125 0.920031 9.09392 0.969281 8.96081 1.07524C8.82397 1.1827 8.73845 1.33791 8.71986 1.51178C8.68044 1.86325 8.93403 2.18114 9.28505 2.22069C11.7057 2.49082 13.5872 4.3765 13.8593 6.80469C13.8958 7.13004 14.1687 7.37555 14.4944 7.37555C14.519 7.37555 14.5428 7.37405 14.5673 7.37107C14.7376 7.35241 14.8893 7.26809 14.9964 7.13377C15.1028 6.99945 15.1511 6.8323 15.1318 6.66142C14.7927 3.63178 12.4479 1.28045 9.42783 0.94391Z" fill="white"/>
<path fill-rule="evenodd" clip-rule="evenodd" d="M6.94543 8.75819C9.92419 11.7361 10.5999 8.29098 12.4965 10.1863C14.325 12.0142 15.3759 12.3804 13.0593 14.6964C12.7691 14.9296 10.9254 17.7353 4.44603 11.2577C-2.03414 4.77933 0.769869 2.93375 1.00314 2.64365C3.32538 0.321246 3.6853 1.37827 5.51376 3.20622C7.41036 5.10229 3.96667 5.78026 6.94543 8.75819Z" fill="white"/>
</svg>
