<svg width="20" height="20" viewBox="0 0 20 20" fill="none" xmlns="http://www.w3.org/2000/svg">
<g clip-path="url(#clip0_231_828)">
<path d="M6.32098 4.78945C6.32077 5.20822 6.15422 5.60975 5.85796 5.90571C5.5617 6.20167 5.16001 6.36782 4.74124 6.36761C4.32248 6.3674 3.92095 6.20085 3.62499 5.90459C3.32903 5.60833 3.16288 5.20664 3.16309 4.78787C3.1633 4.36911 3.32985 3.96758 3.62611 3.67162C3.92237 3.37566 4.32406 3.20951 4.74282 3.20972C5.16159 3.20993 5.56311 3.37648 5.85908 3.67274C6.15504 3.969 6.32119 4.37069 6.32098 4.78945ZM6.36835 7.53682H3.21045V17.421H6.36835V7.53682ZM11.3578 7.53682H8.21572V17.421H11.3262V12.2342C11.3262 9.34472 15.092 9.0763 15.092 12.2342V17.421H18.2105V11.1605C18.2105 6.28945 12.6368 6.47103 11.3262 8.86314L11.3578 7.53682Z" fill="black"/>
</g>
<defs>
<clipPath id="clip0_231_828">
<rect width="18.9474" height="18.9474" fill="white" transform="translate(0.841797 0.842041)"/>
</clipPath>
</defs>
</svg>
