<svg width="15" height="17" viewBox="0 0 15 17" fill="none" xmlns="http://www.w3.org/2000/svg">
<path fill-rule="evenodd" clip-rule="evenodd" d="M0.670898 7.03162C0.670898 3.24468 3.83546 0.183838 7.66332 0.183838C11.502 0.183838 14.6665 3.24468 14.6665 7.03162C14.6665 8.93991 13.9725 10.7115 12.8302 12.2131C11.57 13.8695 10.0168 15.3127 8.26851 16.4455C7.86837 16.7073 7.50725 16.727 7.0681 16.4455C5.30982 15.3127 3.7566 13.8695 2.50721 12.2131C1.36408 10.7115 0.670898 8.93991 0.670898 7.03162ZM5.35938 7.24479C5.35938 8.51342 6.39458 9.5112 7.66389 9.5112C8.93404 9.5112 9.97921 8.51342 9.97921 7.24479C9.97921 5.98605 8.93404 4.9397 7.66389 4.9397C6.39458 4.9397 5.35938 5.98605 5.35938 7.24479Z" fill="white"/>
</svg>
