<svg width="30" height="30" viewBox="0 0 30 30" fill="none" xmlns="http://www.w3.org/2000/svg">
<g clip-path="url(#clip0_167_4574)">
<path d="M23.125 12.5L28.625 26.25H25.9313L24.43 22.5H19.3175L17.8188 26.25H15.1262L20.625 12.5H23.125ZM12.5 2.5V5H20V7.5H17.54C16.5758 10.4026 15.0368 13.0813 13.015 15.3762C13.9166 16.1808 14.8946 16.8954 15.935 17.51L14.9963 19.8575C13.6531 19.0957 12.397 18.19 11.25 17.1562C9.01698 19.1772 6.37255 20.6902 3.49875 21.5913L2.82875 19.18C5.29104 18.3949 7.56003 17.0992 9.4875 15.3775C8.06086 13.7624 6.87258 11.9516 5.95875 10H8.75875C9.45544 11.2861 10.2908 12.492 11.25 13.5962C12.8126 11.7951 14.0441 9.73163 14.8875 7.50125L2.5 7.5V5H10V2.5H12.5ZM21.875 16.1063L20.3162 20H23.4313L21.875 16.1063Z" fill="white"/>
</g>
<defs>
<clipPath id="clip0_167_4574">
<rect width="30" height="30" fill="white"/>
</clipPath>
</defs>
</svg>
